<?xml version="1.0" encoding="UTF-8"?>
<svg id="Layer_2" data-name="Layer 2" xmlns="http://www.w3.org/2000/svg" viewBox="0 0 301.9 60.4">
  <defs>
    <style>
      .cls-1 {
        fill: none;
        stroke: #fff;
        stroke-miterlimit: 10;
        stroke-width: 2px;
      }

      .cls-2 {
        fill: #fff;
      }

      .cls-2, .cls-3 {
        stroke-width: 0px;
      }

      .cls-3 {
        fill: #00203f;
      }
    </style>
  </defs>
  <g id="Layer_1-2" data-name="Layer 1">
    <g>
      <g id="QLS_LETTERS" data-name="QLS LETTERS">
        <path class="cls-3" d="m113.6,47.5h-33.5v-1h0V2.4c-7.1,0-12.8,5.8-12.9,12.9v26h0v19h33.5c4.1,0,7.9-1.9,10.3-5.2h0c1.7-2.1,2.6-4.8,2.6-7.6Z"/>
        <path class="cls-3" d="m148.7,26.1c-2-.7-4.1-1.1-6.1-1.1h-11.3c-2.7,0-4.8-2.2-4.8-4.8s2.2-4.8,4.8-4.8h11.3c7.1,0,12.8-5.8,12.9-12.9h-24.1c-9.8-.2-17.9,7.5-18.1,17.3-.2,9.8,7.5,17.9,17.3,18.1h12.1c2.7,0,4.8,2.2,4.8,4.8s-2.2,4.8-4.8,4.8h-29c0,7.1,5.8,12.8,12.9,12.9h16.1c9.2,0,16.8-7,17.6-16.1,0-.5.1-1.1.1-1.6-.2-7.4-4.7-14-11.7-16.6"/>
        <path class="cls-3" d="m6.9,49.3c9.5,11.5,25.9,14.4,38.7,6.7l4.3,4.3h17.3l-12.6-12.5c2-2.8,3.6-6,4.5-9.4l-1.2-.4,1.2.4c.4-1.6.8-3.1.9-4.8-4.2-1.8-8.4-3.3-12.8-4.5v1c0,1.7-.2,3.4-.7,5h0c-2.7,9.1-12.3,14.2-21.4,11.5-3.7-1.1-6.9-3.4-9.1-6.5h0c-2.9-4.1-3.8-9.2-2.6-14h0c1.9-7.6,8.7-12.9,16.5-13h.1c9.1,0,16.6,7,17.2,16.1,4.4,1.2,8.7,2.7,12.8,4.5.1-1.2.2-2.3.2-3.5.1-16.7-13.4-30.2-30-30.2h-.2C14,.1.9,12.6,0,28.6h0v1.6c0,7,2.5,13.7,6.9,19.1"/>
      </g>
      <path class="cls-1" d="m51.7,13.8l-4.5-5.1c-.1-.1-.3-.1-.4,0h0l-.2.2c-.1.1-.1.3,0,.4l.1.1-13.5,12.6V3.4h.1c.2,0,.3-.1.3-.3h0v-.3c0-.2-.1-.3-.3-.3h-6.7c-.2,0-.3.1-.3.3h0v.3c0,.2.1.3.3.3h.1v26.8c0,.1,0,.2.1.3,0,.1.1.2.1.3s.1.2.1.3l.2.3c.1.1.1.2.2.3,0,.1.1.1.1.2v.1l.2.2.2.2.2.2.3.2.3.1.3.1h1.3l.3-.1.3-.1.3-.1.3-.2.3-.2c.2-.2.2-.3.3-.3l18.8-17.6.1.1c.1.1.3.1.4,0h0l.2-.2c.2-.2.2-.4.1-.5h0Z"/>
      <path class="cls-2" d="m32.8,28.3V2.9h-5.5v25.4c-.2.4-.3.8-.3,1.3.1,1.7,1.6,2.9,3.2,2.7s2.9-1.6,2.7-3.2c0-.2,0-.5-.1-.8"/>
      <rect class="cls-3" x="32.3" y="3" width=".9" height=".4"/>
      <rect class="cls-3" x="26.8" y="3" width=".9" height=".4"/>
      <rect class="cls-3" x="28.3" y="5.8" width="1.1" height=".7"/>
      <rect class="cls-3" x="28.3" y="8.6" width="1.1" height=".7"/>
      <rect class="cls-3" x="28.3" y="11.5" width="1.1" height=".7"/>
      <rect class="cls-3" x="28.3" y="14.3" width="1.1" height=".7"/>
      <path class="cls-3" d="m33.4,2.5h-6.7c-.2,0-.3.2-.3.3h0v.3c0,.2.1.3.3.3h.1v26.2c0,1.8,1.4,3.2,3.2,3.2s3.2-1.4,3.2-3.2h0V3.4h.1c.2,0,.3-.2.3-.3h0v-.3c.1-.2-.1-.3-.2-.3Zm-5.7,27.2V3.4h4.6v12.5h-4.1v1.3h1.1v.7h-1.1v2.1h1.1v.7h-1.1v2.2h1.1v.7h-1.1v5.7c0,1.4,1.1,2.5,2.5,2.5h0c.2,0,.4,0,.6-.1-.3.3-.8.4-1.3.4-1.3,0-2.3-1.1-2.3-2.4h0Z"/>
      <path class="cls-2" d="m32.8,30.8l18.2-17-3.7-4.2-18.3,17c-.4.1-.8.4-1.1.7-1.2,1.2-1.3,3.1-.2,4.4,1.1,1.2,3,1.3,4.2.2.4-.3.7-.6.9-1.1"/>
      <polygon class="cls-3" points="50.6 13.4 50.4 13.6 51 14.3 51.2 14.1 50.6 13.4"/>
      <polygon class="cls-3" points="47.5 9.9 46.9 9.2 46.6 9.4 47.2 10.1 47.5 9.9"/>
      <path class="cls-3" d="m51.7,13.8l-4.5-5.1c-.1-.1-.3-.1-.4,0h0l-.3.3c-.1.1-.1.3,0,.5l.1.1-18.8,17.5c-1.3,1.3-1.4,3.3-.2,4.7,1.1,1.3,3.1,1.4,4.4.3l.1-.1,18.7-17.6.1.1c.1.1.3.1.4,0l.2-.2c.3-.1.3-.3.2-.5Zm-20.2,17.6c-.9.9-2.3.8-3.2-.1l-.1-.1c-.9-1-.8-2.5.2-3.4l18.8-17.7,3.1,3.5-18.8,17.8Z"/>
      <polygon class="cls-3" points="46.1 13.5 45.3 12.7 45.8 12.2 46.6 13.1 46.1 13.5"/>
      <polygon class="cls-3" points="44 15.4 43.3 14.6 43.8 14.1 44.6 15 44 15.4"/>
      <polygon class="cls-3" points="42 17.3 41.3 16.5 41.8 16 42.5 16.9 42 17.3"/>
      <polygon class="cls-3" points="40 19.2 39.3 18.4 39.8 18 40.5 18.8 40 19.2"/>
      <path class="cls-3" d="m38.2,19.5l-.4.4.7.8-.5.5-.7-.8-1.5,1.4.7.8-.5.5-.7-.8-1.5,1.4.7.8-.5.5-.7-.8-1.5,1.4.7.8-.5.5-.7-.8-2.2,1.9c-1,1-1.1,2.6-.2,3.6.9,1,2.4,1.1,3.4.3l.1-.1,12.9-12.3h-7.1Z"/>
      <g id="Microscope">
        <path class="cls-3" d="m103.6,39.2c0,1,1.4,1.8,3.2,1.8s3.1-.8,3.1-1.8c0-.1,0-.2-.1-.3h-6.2v.3"/>
        <path class="cls-3" d="m105.7,41.4h-8.4v-8.4c0-.4-.2-.7-.4-.7h-4.8c-.1,0-.2,0-.2.1-1.2-1.5-1.9-3.4-1.9-5.4-.1-3.2,1.7-6.1,4.6-7.3l-1.8-2.7c-3.8,1.9-6.1,5.8-6,10-.1,3.8,1.8,7.3,4.9,9.4v7.3c0,.1.1.3.2.3q.1.1.2.1h20.7c.3,0,.6-.2.6-.5v-1.8c0-.3-.3-.5-.6-.5h-5v-1.3h-2.1v1.4Z"/>
        <path class="cls-3" d="m93.3,14.5c0,.1.1.2.1.3l.9,1.4.1-.1,1.4-.8,4.5-2.7-.9-1.4c-.2-.4-.6-.5-1-.4l-.6.4-.9-1.4-.6.4-.4-.6-.1-.1-2.4,1.5.4.7-.5.3.9,1.4-.6.4c-.2.1-.3.4-.3.7"/>
        <path class="cls-3" d="m101.2,14.1l-3.5,2.1-1.9,1.1-.4.3-.2.1.6,1.1.3.5,1.4,2.3,3.4,5.6c.2.4.6.5,1,.4l1.2-.7.4.7.5.8,2.4-1.4h.1l-.1-.1-.8-1.3.6-.4.6-.3c.3-.3.4-.7.2-1.1m-5.9-1.4c-1,0-1.8-.8-1.8-1.8,0-.3.1-.5.2-.8.4-.9,1.5-1.2,2.4-.8.9.4,1.2,1.5.8,2.4-.1.3-.3.5-.6.7-.3.2-.7.3-1,.3"/>
        <path class="cls-3" d="m101.1,19.6c-.4,0-.8.2-1,.6-.1.1-.1.3-.1.4,0,.6.4,1,1,1.1.2,0,.4-.1.5-.2.5-.2.8-.9.5-1.4-.1-.3-.5-.6-.9-.5"/>
        <rect class="cls-3" x="85.1" y="43.2" width="46.4" height="1.9"/>
        <rect class="cls-3" x="99.5" y="35" width="14.7" height="2.3"/>
      </g>
      <path class="cls-3" d="m180.6,15.2l1.8,2h-2.1l-1-1.1c-1,.5-2.1.7-3.1.8-1.7,0-3.3-.6-4.6-1.8-1.2-1.2-1.9-2.8-1.9-4.4s.7-3.2,1.9-4.3c2.6-2.4,6.5-2.4,9.1,0,1.2,1.1,1.9,2.6,1.9,4.3.1,1.6-.7,3.3-2,4.5m-2.5-.4l-2.6-2.7h2.1l1.8,1.9c.9-.9,1.5-2.1,1.5-3.4,0-1.2-.5-2.4-1.4-3.2-.9-.9-2.2-1.3-3.4-1.3s-2.4.5-3.3,1.3c-.9.8-1.4,2-1.4,3.2s.5,2.4,1.4,3.2c.9.9,2.1,1.4,3.4,1.3.7.1,1.3-.1,1.9-.3"/>
      <path class="cls-3" d="m185.6,4.8h1.6v7.2c-.1.9.2,1.8.8,2.5.6.6,1.3.9,2.2.9.8.1,1.6-.2,2.2-.8.5-.6.8-1.4.8-2.2v-7.6h1.6v7.3c.1,1.3-.4,2.5-1.2,3.4-.9.9-2,1.3-3.2,1.3-1.2.1-2.4-.4-3.3-1.3-.9-1.1-1.4-2.4-1.2-3.8l-.3-6.9Z"/>
      <path class="cls-3" d="m202.2,4.3l5.5,12.1h-1.7l-1.4-3h-4.9l-1.3,3h-1.6l5.4-12.1Zm0,3.7l-1.9,4.2h3.8l-1.9-4.2Z"/>
      <polygon class="cls-3" points="210.3 4.8 211.9 4.8 211.9 14.9 215.7 14.9 215.7 16.4 210.3 16.4 210.3 4.8"/>
      <rect class="cls-3" x="218.2" y="4.8" width="1.6" height="11.6"/>
      <polygon class="cls-3" points="222.6 4.8 229.7 4.8 229.7 6.4 226.9 6.4 226.9 16.4 225.3 16.4 225.3 6.4 222.6 6.4 222.6 4.8"/>
      <polygon class="cls-3" points="231.7 4.8 233.5 4.8 236.3 9.5 239.1 4.8 240.9 4.8 237.1 11.1 237.1 16.4 235.5 16.4 235.5 11.1 231.7 4.8"/>
      <path class="cls-3" d="m177.4,47.3l-1.3,1c-.3-.3-.6-.6-.9-.8-.4-.2-.8-.3-1.2-.3-.5,0-1,.1-1.4.4-.3.2-.5.6-.5,1s.2.7.5.9c.5.4,1,.7,1.6.9s1.2.5,1.7.9c.4.3.7.6,1,.9.3.3.5.7.6,1.1.1.4.2.8.2,1.2,0,.9-.3,1.8-1,2.5s-1.6,1-2.6,1c-.9,0-1.8-.3-2.6-.8-.8-.6-1.4-1.4-1.7-2.4l1.6-.4c.4,1.2,1.4,2,2.7,2,.5,0,1-.2,1.4-.5s.6-.8.6-1.3c0-.4-.1-.7-.3-1s-.4-.6-.8-.8c-.5-.3-.9-.5-1.4-.7s-1-.4-1.5-.7c-.3-.2-.6-.5-.9-.8-.2-.3-.4-.6-.6-.9-.1-.3-.2-.7-.2-1,0-.8.4-1.6,1-2.1.7-.6,1.5-.9,2.4-.9.7,0,1.3.1,1.9.4.7.1,1.2.5,1.7,1.2"/>
      <polygon class="cls-3" points="180.4 46 186.9 46 186.9 47.5 182 47.5 182 50.5 186.9 50.5 186.9 52 182 52 182 56 186.9 56 186.9 57.6 180.4 57.6 180.4 46"/>
      <path class="cls-3" d="m189.9,46h2.5c1.1,0,2.2.3,3.1.9.8.6,1.2,1.5,1.2,2.4,0,.8-.3,1.5-.8,2.1-.6.7-1.5,1.1-2.4,1.3l3.4,5h-1.8l-3.2-4.8h-.4v4.8h-1.6v-11.7Zm1.6,1.4v4c2.3,0,3.5-.6,3.5-2,0-.4-.1-.9-.4-1.2-.3-.3-.7-.6-1.1-.6-.6-.2-1.3-.3-2-.2"/>
      <polygon class="cls-3" points="198.6 46 200.3 46 204 54.2 207.6 46 209.3 46 203.9 58 198.6 46"/>
      <rect class="cls-3" x="211.8" y="46" width="1.6" height="11.6"/>
      <path class="cls-3" d="m226.3,46.4v1.8c-1.1-.6-2.3-.9-3.5-.9-1.3,0-2.5.4-3.4,1.3-1.8,1.7-1.9,4.4-.2,6.2.1.1.2.2.2.2,1,.9,2.2,1.3,3.5,1.3,1.2,0,2.3-.4,3.3-1v1.8c-1.1.6-2.2.8-3.4.8-1.7,0-3.4-.6-4.6-1.8-1.2-1.1-1.9-2.7-1.9-4.4s.7-3.2,1.9-4.3c1.2-1.2,2.9-1.8,4.5-1.8,1.2,0,2.4.3,3.6.8"/>
      <polygon class="cls-3" points="229 46 235.4 46 235.4 47.5 230.6 47.5 230.6 50.5 235.4 50.5 235.4 52 230.6 52 230.6 56 235.4 56 235.4 57.6 229 57.6 229 46"/>
      <polygon class="cls-3" points="169.9 23.7 173 23.7 173 35.1 177.3 35.1 177.3 38.3 169.9 38.3 169.9 23.7"/>
      <path class="cls-3" d="m184.6,23.7h2.4l6,14.6h-3.2l-1.2-2.9h-5.6l-1.1,2.9h-3.1l5.8-14.6Zm1.2,4.7l-1.7,4.3h3.5l-1.8-4.3Z"/>
      <path class="cls-3" d="m195.2,23.7h4.3c1.8,0,3,.4,3.6,1.1.7.7,1,1.6,1,2.6,0,.6-.1,1.1-.4,1.6-.3.5-.7,1-1.1,1.3.9.3,1.6.8,2.1,1.6.4.6.6,1.4.6,2.2.1,1.2-.4,2.4-1.4,3.1-1.1.8-2.5,1.2-3.9,1.1h-4.9l.1-14.6Zm3.1,2.4v3.2h.7c.5,0,1-.2,1.3-.5.4-.3.6-.8.6-1.3,0-.4-.2-.8-.5-1-.4-.3-.8-.4-1.3-.4h-.8Zm0,5.7v4h1.1c1.7,0,2.6-.6,2.6-1.9,0-.6-.2-1.2-.6-1.6-.5-.4-1.2-.6-1.8-.6l-1.3.1Z"/>
      <path class="cls-3" d="m206.8,31c-.1-2,.7-3.9,2.1-5.3,1.3-1.4,3.2-2.1,5.1-2.1,4.2,0,7.6,3.4,7.5,7.6,0,1.9-.8,3.8-2.1,5.2-1.4,1.4-3.3,2.2-5.3,2.1-2,.1-3.9-.7-5.3-2.1-1.3-1.5-2-3.4-2-5.4m7.4-4.6c-1.1-.1-2.3.4-3,1.3-.8.9-1.2,2.1-1.1,3.3,0,1.2.4,2.3,1.1,3.2.7.8,1.8,1.3,2.9,1.3,1.1.1,2.2-.4,3-1.3.8-.9,1.2-2.1,1.1-3.3.1-1.2-.3-2.4-1.1-3.3-.7-.7-1.8-1.2-2.9-1.2"/>
      <path class="cls-3" d="m224.1,23.7h4.8c1.3-.1,2.5.3,3.5,1.1.9.8,1.3,2,1.3,3.1,0,.8-.2,1.6-.6,2.3-.5.9-1.2,1.5-2.1,1.9l4.1,6.1h-3.6l-3.8-5.7h-.4v5.7h-3.1l-.1-14.5Zm3.2,2.6v3.8h.7c1.6,0,2.5-.7,2.5-2,0-.5-.2-1-.6-1.3-.5-.3-1.2-.5-1.8-.5h-.8Z"/>
      <path class="cls-3" d="m242.5,23.7h2.4l6,14.6h-3.2l-1.2-2.9h-5.5l-1.1,2.9h-3.1l5.7-14.6Zm1.2,4.7l-1.7,4.3h3.5l-1.8-4.3Z"/>
      <polygon class="cls-3" points="250.8 23.7 260.6 23.7 260.6 26.8 257.2 26.8 257.2 38.3 254.1 38.3 254.1 26.8 250.8 26.8 250.8 23.7"/>
      <path class="cls-3" d="m262,31c-.1-2,.7-3.9,2.1-5.3,1.3-1.4,3.2-2.1,5.1-2.1,4.2,0,7.5,3.5,7.5,7.7,0,1.9-.8,3.8-2.1,5.2-1.4,1.4-3.3,2.2-5.3,2.1-2,.1-3.9-.7-5.3-2.1-1.4-1.6-2.1-3.5-2-5.5m7.3-4.6c-1.1-.1-2.3.4-3,1.3-.8.9-1.2,2.1-1.1,3.3,0,1.2.4,2.4,1.2,3.2.7.8,1.8,1.3,2.9,1.3s2.2-.4,3-1.3c.8-.9,1.2-2.1,1.1-3.3.1-1.2-.3-2.4-1.1-3.3-.7-.7-1.8-1.2-3-1.2"/>
      <path class="cls-3" d="m279.3,23.7h4.8c1.3-.1,2.5.3,3.5,1.1.9.8,1.3,2,1.3,3.1,0,.8-.2,1.6-.6,2.3-.5.9-1.2,1.5-2.2,1.9l4.1,6.1h-3.6l-3.8-5.7h-.4v5.7h-3.1v-14.5Zm3.2,2.6v3.8h.7c1.6,0,2.5-.7,2.5-2,0-.5-.2-1-.6-1.3-.5-.3-1.2-.5-1.8-.5h-.8Z"/>
      <polygon class="cls-3" points="289.4 23.7 292.9 23.7 295.6 28.2 298.4 23.7 301.9 23.7 297.2 31.5 297.2 38.3 294.1 38.3 294.1 31.5 289.4 23.7"/>
      <path class="cls-3" d="m246.25,47.3l-1.3,1c-.3-.3-.6-.6-.9-.8-.4-.2-.8-.3-1.2-.3-.5,0-1,.1-1.4.4-.3.2-.5.6-.5,1s.2.7.5.9c.5.4,1,.7,1.6.9s1.2.5,1.7.9c.4.3.7.6,1,.9.3.3.5.7.6,1.1.1.4.2.8.2,1.2,0,.9-.3,1.8-1,2.5s-1.6,1-2.6,1c-.9,0-1.8-.3-2.6-.8-.8-.6-1.4-1.4-1.7-2.4l1.6-.4c.4,1.2,1.4,2,2.7,2,.5,0,1-.2,1.4-.5s.6-.8.6-1.3c0-.4-.1-.7-.3-1s-.4-.6-.8-.8c-.5-.3-.9-.5-1.4-.7s-1-.4-1.5-.7c-.3-.2-.6-.5-.9-.8-.2-.3-.4-.6-.6-.9-.1-.3-.2-.7-.2-1,0-.8.4-1.6,1-2.1.7-.6,1.5-.9,2.4-.9.7,0,1.3.1,1.9.4.7.1,1.2.5,1.7,1.2"/>
    </g>
  </g>
</svg>